<svg xmlns="http://www.w3.org/2000/svg" fill="none" viewBox="0 0 24 24"><path d="m15.9894 4.9502.5306-.53006zm3.0822 3.08542-.5306.53006zm-10.33323 11.39338-.5306.5301zm-4.11668-4.1209.5306-.53zm12.94521-.3138-.2637-.7021zm-1.9171.7203.2638.7021zm-7.3176-7.33283-.70422-.25802zm.69445-1.89541.70422.25802zm-3.18161 4.18714.19934.723zm1.45663-.5384-.43821-.60864zm.37415-.34472.57083.48642zm6.57518 6.59012.491.567zm-.8704 1.8207-.7232-.199zm.5363-1.4546-.6094-.4372zm-11.19844-3.9914-.74998.0048zm.21199-.8031-.64992-.3743zm8.37475 9.391.0012-.75zm.7881-.2084-.3718-.6514zm-.396-19.09864.1615.73239zm-10.2279 19.43384c-.29274.2931-.2925.768.00054 1.0607s.76792.2925 1.06066-.0005zm5.71443-3.5978c.29274-.293.2925-.7679-.00054-1.0607-.29305-.2927-.76792-.2925-1.06066.0006zm8.27497-12.39184 3.0822 3.08542 1.0612-1.06012-3.0822-3.08542zm-6.18983 13.41864-4.11668-4.1208-1.0612 1.0601 4.11668 4.1209zm8.03423-4.6067-1.9172.7203.5276 1.4042 1.9171-.7203zm-8.26678-5.65241.69445-1.89541-1.40844-.51604-.69445 1.89541zm-2.99204 2.75671c.71145-.1962 1.25281-.334 1.69549-.6527l-.87641-1.21734c-.17293.12451-.39745.19782-1.21776.42398zm1.5836-3.27275c-.29296.79957-.3846 1.01778-.52299 1.18016l1.14166.97289c.35376-.41505.53565-.94343.78977-1.63701zm.11189 2.62005c.18709-.1347.35725-.2915.50678-.467l-1.14166-.97289c-.07129.08366-.15239.15838-.24153.22255zm7.64613 4.2687c-.689.2589-1.2144.4446-1.626.801l.982 1.134c.1608-.1393.3772-.2323 1.1716-.5308zm-1.2823 3.3876c.2253-.8188.2984-1.0432.4226-1.2163l-1.2188-.8744c-.3173.4423-.4546.9825-.6501 1.6928zm-.3437-2.5866c-.1697.147-.3216.3134-.4525.4959l1.2188.8744c.0624-.087.1348-.1663.2157-.2363zm-8.60771-1.0354c-.64614-.6468-1.0843-1.0871-1.36863-1.4443-.28531-.3585-.31477-.5137-.31521-.5833l-1.49997.0095c.00367.5822.29279 1.0697.64154 1.5079.34974.4394.86113.9497 1.48107 1.5703zm.49341-4.82766c-.84522.23306-1.54174.42386-2.06274.63306-.51955.2085-1.0118.4897-1.30243.9943l1.29985.7486c.03462-.0601.13655-.1804.56142-.3509.42343-.17 1.02157-.3361 1.90258-.579zm-2.17725 2.80006c-.00094-.1489.03771-.2952.11193-.4241l-1.29985-.7486c-.20699.3594-.31467.7674-.31205 1.1822zm4.73932 7.2086c.62387.6245 1.13687 1.1396 1.5787 1.4915.44053.3509.93143.6416 1.51763.6425l.0023-1.5c-.0695-.0001-.225-.0287-.5854-.3158-.3592-.2861-.80177-.7274-1.45203-1.3784zm4.44963-1.9569c-.2441.8875-.4112 1.4902-.5823 1.9166-.1718.4279-.293.5299-.3536.5645l.7435 1.3028c.509-.2905.7923-.7857 1.0021-1.3086.2105-.5243.4023-1.2259.6366-2.0774zm-1.3533 4.0909c.4071.0006.8073-.1052 1.1609-.307l-.7435-1.3028c-.1265.0722-.2696.11-.4151.1098zm7.2369-13.52742c1.0635 1.06454 1.7993 1.80382 2.2507 2.41312.4436.5986.4946.9171.4404 1.1676l1.4661.317c.1899-.878-.16-1.6472-.7013-2.3777-.5334-.71978-1.3664-1.55084-2.3947-2.58014zm-.7103 7.13072c1.3614-.5115 2.4633-.9234 3.2464-1.358.7947-.4411 1.4312-.9968 1.6211-1.875l-1.4661-.317c-.0541.2504-.232.5191-.883.8804-.6626.3678-1.6379.7364-3.0459 1.2654zm-1.3107-11.27626c-1.0359-1.03694-1.8719-1.87661-2.5954-2.41376-.7338-.54473-1.5071-.89726-2.3889-.70271l.3231 1.46478c.2498-.0551.5689-.00515 1.1716.4423.6129.45504 1.3572 1.19726 2.4284 2.26951zm-6.78913 2.32424c.52163-1.42363.88523-2.41035 1.25033-3.08123.359-.65977.6278-.83958.8776-.8947l-.3231-1.46478c-.8817.19452-1.4352.83965-1.87208 1.64251-.43084.79175-.83674 1.90536-1.34119 3.28216zm-7.20027 15.78572 4.65323-4.658-1.0612-1.0601-4.65323 4.6579z" fill="currentColor"/></svg>