<svg viewBox="0 0 24 24"><path fill="currentColor" opacity=".42" d="M5.25 3A2.25 2.25 0 0 0 3 5.25v13.8c0 1.3 1.37 2.13 2.5 1.5l2.06-1.14c.29-.16.65-.16.94 0l2.06 1.14c.67.37 1.49.37 2.16 0l2.06-1.14c.29-.16.65-.16.94 0l2.06 1.14c1.13.63 2.5-.2 2.5-1.5V5.25A2.25 2.25 0 0 0 18.03 3H5.25Z"/><path fill="currentColor" d="M7 7.25a.75.75 0 0 1 .75-.75h8.5a.75.75 0 0 1 0 1.5h-8.5A.75.75 0 0 1 7 7.25Zm0 4a.75.75 0 0 1 .75-.75h8.5a.75.75 0 0 1 0 1.5h-8.5a.75.75 0 0 1-.75-.75Zm0 4a.75.75 0 0 1 .75-.75h5.25a.75.75 0 0 1 0 1.5H7.75a.75.75 0 0 1-.75-.75Z"/></svg>